# xmcd
# 
# Track frame offsets:
#     150
#     13380
#     26356
#     35906
#     48741
#     61374
#     74917
#     88790
#     101919
#     114521
#     127921
#     141529
#     152945
#     165815
#     179154
#     193062
#     205876
#     217969
#     231552
#     245631
# 
# Disc length: 3446
# 
# Revision: 2
# Processed by: cddbd v1.5.2PL0 Copyright (c) Steve Scherf et al.
# Submitted via: BonkEnc v1.0.8
# 
DISCID=3e0d7414
DTITLE=200 Blues Songs - Goin' Mad Blues [CD 4)
DYEAR=2006
DGENRE=Blues
TTITLE0=Hot Lips Page - Pagin' Mr. Page
TTITLE1=Robert Johnson - Preaching Blues
TTITLE2=Leadbelly - I'm Sorry Mama
TTITLE3=Blind Boy Fuller - Money Spending Woman
TTITLE4=John Lee'Sonny Boy' Williamson - Good Gravy
TTITLE5=Ma Rainey - Louisiana Hoo Doo Blues
TTITLE6=Lonnie Johnson - Life Saver Blues
TTITLE7=Blind Willie McTell - Don't You See How This World Made A Change
TTITLE8=Blind Boy Fuller and Sonny Terry - Blues And Worried Man
TTITLE9=Kokomo Arnold - Crying Blues
TTITLE10=Blind John Davis - Memphis Blues
TTITLE11=Arthur 'Big Boy' Crudup - Keep Your Arms Around Me
TTITLE12=Sleepy John Estes - Special Agent (Railroad Police Blues)
TTITLE13=Bessie Smith - Mama's Got The Blues
TTITLE14=Big Bill Broonzy - Horny Frog
TTITLE15=Lightnin' Hopkins - You're Not Goin' To Worry My Life Anymore
TTITLE16=Big Joe Williams - I Won't Be In Hard Luck No More
TTITLE17=Big Joe Turner - Goin' To Chicago Blues
TTITLE18=Jimmy Yancey - South Side Stuff
TTITLE19=Memphis Slim - Empty Room Blues
EXTD=
EXTT0=
EXTT1=
EXTT2=
EXTT3=
EXTT4=
EXTT5=
EXTT6=
EXTT7=
EXTT8=
EXTT9=
EXTT10=
EXTT11=
EXTT12=
EXTT13=
EXTT14=
EXTT15=
EXTT16=
EXTT17=
EXTT18=
EXTT19=
PLAYORDER=
